#define graphic_mouth_closed_width 14
#define graphic_mouth_closed_height 14
static char graphic_mouth_closed_bits[] = {
  0xFF, 0x3F, 0xFF, 0x3F, 0xFF, 0x3F, 0xFF, 0x3F, 0xFF, 0x3F, 0xFF, 0x3F, 
  0xFF, 0x3F, 0xFF, 0x3F, 0x01, 0x20, 0x03, 0x30, 0x3F, 0x3F, 0xFF, 0x3F, 
  0xFF, 0x3F, 0xFF, 0x3F, };
