#define graphic_mouth_open_width 14
#define graphic_mouth_open_height 14
static char graphic_mouth_open_bits[] = {
  0xFF, 0x3F, 0xFF, 0x3F, 0xFF, 0x3F, 0xFF, 0x3F, 0xFF, 0x3F, 0x07, 0x38, 
  0xF3, 0x33, 0xF9, 0x27, 0xF9, 0x27, 0xF3, 0x33, 0x07, 0x38, 0x3F, 0x3F, 
  0xFF, 0x3F, 0xFF, 0x3F, };
