#define graphic_mouth_mid_width 14
#define graphic_mouth_mid_height 14
static char graphic_mouth_mid_bits[] = {
  0xFF, 0x3F, 0xFF, 0x3F, 0xFF, 0x3F, 0xFF, 0x3F, 0xFF, 0x3F, 0xFF, 0x3F, 
  0xFF, 0x3F, 0x03, 0x30, 0xF9, 0x27, 0xF3, 0x33, 0x07, 0x38, 0x3F, 0x3F, 
  0xFF, 0x3F, 0xFF, 0x3F, };
