#define graphic_mouth_normal_width 14
#define graphic_mouth_normal_height 14
static char graphic_mouth_normal_bits[] = {
  0xFF, 0x3F, 0xFF, 0x3F, 0xFF, 0x3F, 0xFF, 0x3F, 0xFF, 0x3F, 0xFF, 0x3F, 
  0xFF, 0x3F, 0x00, 0x00, 0x01, 0x20, 0x03, 0x30, 0x3F, 0x3F, 0xFF, 0x3F, 
  0xFF, 0x3F, 0xFF, 0x3F, };
