#define graphic_eye_dead_width 41
#define graphic_eye_dead_height 41
static char graphic_eye_dead_bits[] = {
  0x00, 0x00, 0x00, 0x00, 0x00, 0x00, 0x00, 0x00, 0x00, 0x00, 0x00, 0x00, 
  0x00, 0x00, 0x00, 0x00, 0x00, 0x00, 0x00, 0x00, 0x00, 0x00, 0x00, 0x00, 
  0x00, 0x00, 0x00, 0x00, 0x00, 0x00, 0xC0, 0x00, 0x00, 0x00, 0x06, 0x00, 
  0xE0, 0x01, 0x00, 0x00, 0x0F, 0x00, 0xE0, 0x03, 0x00, 0x80, 0x0F, 0x00, 
  0xC0, 0x07, 0x00, 0xC0, 0x07, 0x00, 0x80, 0x0F, 0x00, 0xE0, 0x03, 0x00, 
  0x00, 0x1F, 0x00, 0xF0, 0x01, 0x00, 0x00, 0x3E, 0x00, 0xF8, 0x00, 0x00, 
  0x00, 0x7C, 0x00, 0x7C, 0x00, 0x00, 0x00, 0xF8, 0x00, 0x3E, 0x00, 0x00, 
  0x00, 0xF0, 0x01, 0x1F, 0x00, 0x00, 0x00, 0xE0, 0x83, 0x0F, 0x00, 0x00, 
  0x00, 0xC0, 0xC7, 0x07, 0x00, 0x00, 0x00, 0x80, 0xEF, 0x03, 0x00, 0x00, 
  0x00, 0x00, 0xFF, 0x01, 0x00, 0x00, 0x00, 0x00, 0xFE, 0x00, 0x00, 0x00, 
  0x00, 0x00, 0x7C, 0x00, 0x00, 0x00, 0x00, 0x00, 0xFE, 0x00, 0x00, 0x00, 
  0x00, 0x00, 0xFF, 0x01, 0x00, 0x00, 0x00, 0x80, 0xEF, 0x03, 0x00, 0x00, 
  0x00, 0xC0, 0xC7, 0x07, 0x00, 0x00, 0x00, 0xE0, 0x83, 0x0F, 0x00, 0x00, 
  0x00, 0xF0, 0x01, 0x1F, 0x00, 0x00, 0x00, 0xF8, 0x00, 0x3E, 0x00, 0x00, 
  0x00, 0x7C, 0x00, 0x7C, 0x00, 0x00, 0x00, 0x3E, 0x00, 0xF8, 0x00, 0x00, 
  0x00, 0x1F, 0x00, 0xF0, 0x01, 0x00, 0x80, 0x0F, 0x00, 0xE0, 0x03, 0x00, 
  0xC0, 0x07, 0x00, 0xC0, 0x07, 0x00, 0xE0, 0x03, 0x00, 0x80, 0x0F, 0x00, 
  0xE0, 0x01, 0x00, 0x00, 0x0F, 0x00, 0xC0, 0x00, 0x00, 0x00, 0x06, 0x00, 
  0x00, 0x00, 0x00, 0x00, 0x00, 0x00, 0x00, 0x00, 0x00, 0x00, 0x00, 0x00, 
  0x00, 0x00, 0x00, 0x00, 0x00, 0x00, 0x00, 0x00, 0x00, 0x00, 0x00, 0x00, 
  0x00, 0x00, 0x00, 0x00, 0x00, 0x00, };
