#define graphic_mouth_happy_width 14
#define graphic_mouth_happy_height 14
static char graphic_mouth_happy_bits[] = {
  0xFF, 0x3F, 0xFF, 0x3F, 0xFF, 0x3F, 0xFF, 0x3F, 0xFF, 0x3F, 0xFF, 0x3F, 
  0xF9, 0x27, 0xE3, 0x31, 0x03, 0x30, 0x07, 0x38, 0x0F, 0x3C, 0x3F, 0x3F, 
  0xFF, 0x3F, 0xFF, 0x3F, };
