#define graphic_mouth_sad_width 14
#define graphic_mouth_sad_height 14
static char graphic_mouth_sad_bits[] = {
  0x3F, 0x3F, 0x0F, 0x3C, 0x07, 0x38, 0x03, 0x30, 0xE3, 0x31, 0xF9, 0x27, 
  0xFF, 0x3F, 0xFF, 0x3F, 0xFF, 0x3F, 0xFF, 0x3F, 0xFF, 0x3F, 0xFF, 0x3F, 
  0xFF, 0x3F, 0xFF, 0x3F, };
