#define graphic_mouth_happy_width 14
#define graphic_mouth_happy_height 14
static char graphic_mouth_happy_bits[] = {
  0x00, 0x00, 0x00, 0x00, 0x00, 0x00, 0x00, 0x00, 0x00, 0x00, 0x00, 0x00, 
  0x06, 0x18, 0x1C, 0x0E, 0xFC, 0x0F, 0xF8, 0x07, 0xF0, 0x03, 0xC0, 0x00, 
  0x00, 0x00, 0x00, 0x00, };
