#define graphic_mouth_sad_width 14
#define graphic_mouth_sad_height 14
static char graphic_mouth_sad_bits[] = {
  0xC0, 0x00, 0xF0, 0x03, 0xF8, 0x07, 0xFC, 0x0F, 0x1C, 0x0E, 0x06, 0x18, 
  0x00, 0x00, 0x00, 0x00, 0x00, 0x00, 0x00, 0x00, 0x00, 0x00, 0x00, 0x00, 
  0x00, 0x00, 0x00, 0x00, };
